<svg width="273" height="226" viewBox="0 0 273 226" fill="none" xmlns="http://www.w3.org/2000/svg">
<g clip-path="url(#clip0_15_266)">
<path d="M182.41 49.5033C182.37 49.5104 182.31 49.5209 182.237 49.5334C180.817 49.7777 172.228 51.1542 163.568 47.7277C159.9 46.276 161.151 45.9143 152.981 40.8675C143.402 34.9508 140.944 34.9922 140.231 32.2333C138.807 26.7243 146.412 18.064 151.446 18.6342C152.771 18.7844 154.191 19.6051 156.398 19.0486C156.883 18.9263 159.007 18.3911 160.042 16.5654C160.965 14.9368 160.183 13.762 160.554 12.4263C161.529 8.92032 169.654 7.17064 176.778 8.40688C180.875 9.11793 184.062 11.0591 190.268 14.9125C201.07 21.6194 206.472 24.9728 207.685 30.1107C208.836 34.9804 206.075 37.0787 208.083 42.2916C209.953 47.1455 212.923 46.8213 213.945 50.7479C215.59 57.0664 209.485 64.0011 206.942 66.8899C204.154 70.0571 201.488 71.7954 197.948 74.1031C193.505 76.9996 191.283 78.4479 188.612 78.3005C183.769 78.0334 169.379 78.9428 169.192 74.7799C169.121 73.2198 151.669 74.4972 160.263 57.7012C161.317 55.641 181.966 57.8416 182.238 56.6581" fill="#2F2E41"/>
<path d="M190.767 60.2512L205.61 83.2498L163.004 92.2002L165.718 63.4068L190.767 60.2512Z" fill="#FFB6B6"/>
<path opacity="0.1" d="M190.767 60.2512L205.61 83.2498L163.004 92.2002L165.718 63.4068L190.767 60.2512Z" fill="black"/>
<path d="M159.813 77.2828L205.766 75.2939L226.19 86.8963L225.233 161.483L246.614 203.583L138.75 182.367L147.048 150.544L143.218 83.5813L159.813 77.2828Z" fill="#ED9B38"/>
<path d="M1.23758 222.181C-0.229521 219.779 -0.402783 216.811 0.7742 214.242L18.2643 176.068C19.5697 173.219 22.3758 171.378 25.4132 171.378H246.327C249.28 171.378 251.967 173.065 253.338 175.782L272.085 212.904C273.381 215.47 273.296 218.483 271.857 220.966C270.419 223.448 267.895 224.937 265.105 224.948L7.95418 226H7.92199C5.19594 226 2.69873 224.574 1.23758 222.181Z" fill="white"/>
<path d="M1.23758 222.181C-0.229521 219.779 -0.402783 216.811 0.7742 214.242L18.2643 176.068C19.5697 173.219 22.3758 171.378 25.4132 171.378H246.327C249.28 171.378 251.967 173.065 253.338 175.782L272.085 212.904C273.381 215.47 273.296 218.483 271.857 220.966C270.419 223.448 267.895 224.937 265.105 224.948L7.95418 226H7.92199C5.19594 226 2.69873 224.574 1.23758 222.181ZM25.4132 172.241C22.6946 172.241 20.1831 173.889 19.0147 176.439L1.52459 214.613C0.471097 216.912 0.626098 219.569 1.93928 221.719C3.24719 223.861 5.482 225.137 7.92212 225.137H7.95093L265.102 224.085C267.599 224.075 269.858 222.742 271.145 220.521C272.433 218.299 272.509 215.601 271.349 213.305L252.602 176.182C251.375 173.752 248.97 172.241 246.327 172.241H25.4132Z" fill="#3F3D56"/>
<path d="M225.76 211.406L134.595 204.896C133.249 204.8 132.175 203.857 131.86 202.494C131.544 201.132 132.088 199.785 133.245 199.064L153.404 186.5C153.916 186.18 154.503 186.025 155.099 186.055L233.956 189.779C234.998 189.827 235.93 190.419 236.447 191.361C236.964 192.302 236.98 193.436 236.491 194.393L228.64 209.745C228.113 210.776 227.08 211.414 225.967 211.414C225.898 211.414 225.829 211.411 225.76 211.406Z" fill="#3F3D56"/>
<path d="M133.804 201.097L224.594 207.561L231.775 191.484L153.926 188.312L133.804 201.097Z" fill="white"/>
<path d="M178.481 67.9984C193.549 67.9984 205.764 55.3099 205.764 39.658C205.764 24.006 193.549 11.3176 178.481 11.3176C163.413 11.3176 151.199 24.006 151.199 39.658C151.199 55.3099 163.413 67.9984 178.481 67.9984Z" fill="#FFB6B6"/>
<path d="M187.269 41.4919C187.229 41.499 187.169 41.5096 187.096 41.522C185.676 41.7663 177.087 43.1429 168.427 39.7163C164.759 38.2647 166.01 37.9029 157.84 32.8562C148.261 26.9395 145.803 26.9808 145.09 24.222C143.666 18.713 151.271 10.0527 156.305 10.6229C157.63 10.773 159.05 11.5938 161.257 11.0373C161.742 10.915 163.865 10.3797 164.901 8.55409C165.824 6.92549 165.042 5.75067 165.413 4.41498C166.388 0.908983 174.513 -0.840696 181.637 0.395547C185.734 1.10659 188.921 3.04778 195.127 6.90114C205.929 13.608 211.33 16.9615 212.544 22.0993C213.695 26.9691 210.933 29.0674 212.942 34.2803C214.812 39.1341 217.782 38.81 218.804 42.7365C220.449 49.0551 214.344 55.9898 211.801 58.8786C209.013 62.0458 206.347 63.7841 202.807 66.0917C198.363 68.9883 196.142 70.4365 193.471 70.2892C188.628 70.022 183.812 65.4632 183.624 61.3004C183.554 59.7403 184.18 59.2725 185.731 53.9093C186.377 51.6748 186.825 49.8302 187.097 48.6467" fill="#2F2E41"/>
<path d="M205.968 193.333C207.723 193.405 209.059 195.038 209.156 196.808C209.256 198.645 208.027 200.338 206.549 201.212C204.819 202.237 202.659 202.401 200.71 202.225C198.958 202.066 197.051 201.5 195.923 199.997C194.974 198.732 194.625 196.82 195.432 195.384C196.232 193.961 197.934 193.567 199.357 194.139C200.864 194.743 201.811 196.167 201.821 197.849C201.831 199.713 200.795 201.436 199.34 202.467C197.771 203.579 195.797 203.936 193.929 203.932C191.894 203.927 189.869 203.483 187.997 202.659C186.243 201.888 184.491 200.775 183.237 199.262C182.061 197.845 181.357 195.878 182.01 194.039C182.545 192.531 183.897 191.606 185.446 191.734C186.864 191.851 188.298 192.705 188.927 194.066C189.637 195.601 189.318 197.443 188.415 198.816C187.371 200.401 185.722 201.292 183.891 201.42C181.942 201.557 180.012 200.838 178.408 199.726C176.924 198.696 175.619 197.378 174.025 196.521C173.258 196.109 172.423 195.847 171.555 195.848C170.449 195.849 169.386 196.226 168.31 196.445C167.399 196.631 166.459 196.739 165.56 196.436C164.79 196.177 164.07 195.703 163.585 195.022C163.126 194.378 162.965 193.572 163.225 192.808C163.429 192.208 164.354 192.466 164.148 193.072C163.673 194.47 165.303 195.497 166.444 195.625C167.309 195.722 168.202 195.462 169.037 195.259C169.907 195.048 170.797 194.832 171.697 194.855C174.885 194.936 176.992 197.767 179.562 199.302C182.265 200.917 186.222 201.03 187.876 197.821C188.478 196.656 188.602 195.107 187.776 194.018C187.088 193.111 185.866 192.568 184.759 192.744C183.368 192.965 182.675 194.341 182.726 195.709C182.788 197.383 183.911 198.743 185.109 199.746C187.776 201.978 191.312 203.115 194.723 202.916C196.324 202.822 198.025 202.389 199.268 201.282C200.342 200.326 201.075 198.771 200.817 197.281C200.594 195.992 199.553 195.014 198.295 194.884C197.008 194.751 196.003 195.7 195.945 197.035C195.881 198.537 196.74 199.79 197.984 200.474C199.394 201.249 201.103 201.345 202.665 201.26C204.324 201.171 206.052 200.717 207.213 199.404C208.203 198.285 208.579 196.625 207.666 195.33C207.264 194.758 206.658 194.355 205.968 194.327C205.354 194.302 205.351 193.307 205.968 193.333Z" fill="#ED9B38"/>
<path d="M162.335 192.267L162.823 189.132L189.908 135.357C190.357 134.466 191.42 134.121 192.277 134.587C193.135 135.053 193.467 136.157 193.019 137.047L165.946 190.799L163.732 193.027C163.47 193.289 163.093 193.345 162.77 193.17C162.448 192.995 162.277 192.64 162.335 192.267Z" fill="#3F3D56"/>
<path d="M180.797 158.054C183.853 158.652 186.727 160.001 189.178 161.989L189.316 162.02L189.343 161.877L218.863 166.68L216.724 125.894L239.096 113.165L233.808 182.108C232.663 186.511 228.264 189.082 224.047 187.814L186.47 176.586L186.564 176.106L186.433 176.069C183.429 176.911 180.276 176.993 177.236 176.308C169.61 174.705 164.225 169.318 165.208 164.277C166.191 159.236 173.169 156.45 180.797 158.054Z" fill="#FFB6B6"/>
<path d="M200.979 94.1892L226.19 86.8963C226.19 86.8963 239.434 97.0069 241.029 107.946C241.219 109.247 241.745 169.852 241.189 171.428C237.065 183.103 214.383 164.467 214.383 164.467L200.979 94.1892Z" fill="#ED9B38"/>
<path d="M91.6273 203.115L89.0137 200.789C88.6246 200.442 88.1514 200.212 87.6454 200.125L29.411 190.042C28.0818 189.812 27.1 188.815 26.8485 187.44C26.5971 186.065 27.1587 184.763 28.3143 184.043L49.0897 171.094C49.784 170.661 50.6012 170.525 51.3916 170.711L125.228 188.039C126.664 188.376 127.622 189.581 127.669 191.109C127.716 192.637 126.834 193.903 125.422 194.334L94.5496 203.767C94.2566 203.856 93.9579 203.9 93.6617 203.9C92.9248 203.9 92.2037 203.629 91.6273 203.115Z" fill="#3F3D56"/>
<path d="M63.5829 127.919C66.4694 129.12 69.0372 131.021 71.0713 133.464L71.2008 133.522L71.2548 133.388L99.3206 144.036L129.287 93.6348L145.854 104.3L111.108 162.178C109.164 166.267 104.369 167.905 100.468 165.813L65.6943 147.241L65.8759 146.789L65.7539 146.726C62.6508 146.948 59.5417 146.394 56.687 145.111C49.504 142.005 45.2246 135.637 47.1285 130.888C49.0324 126.14 56.3977 124.81 63.5829 127.919Z" fill="#FFB6B6"/>
<path d="M161.433 102.734L148.179 82.1446C148.179 82.1446 132.407 85.3876 125.909 94.1549C125.097 95.2509 97.1999 137.279 97.0202 139.113C95.7621 151.953 127.825 157.968 127.825 157.968L161.433 102.734Z" fill="#ED9B38"/>
<path d="M90.1849 203.734L23.4302 194.15C21.1961 193.829 19.3521 192.166 18.7322 189.914L3.40046 134.172C2.88095 132.282 3.26879 130.326 4.46457 128.804C5.66034 127.282 7.42705 126.495 9.31358 126.645L76.5689 131.997C79.002 132.191 81.0445 133.97 81.6518 136.426L96.4827 196.399C96.9559 198.313 96.4827 200.336 95.2165 201.811C94.1262 203.081 92.5802 203.79 90.9685 203.79C90.7086 203.79 90.4467 203.772 90.1849 203.734Z" fill="#3F3D56"/>
<path d="M75.3052 89.5591C75.6953 90.005 77.1113 89.5507 79.9274 88.6241C82.068 87.9197 82.3977 87.6634 82.6013 87.4797C83.3171 86.8336 83.5047 86.1542 84.2138 83.1529C85.4864 77.7659 85.5257 77.231 86.1793 76.0879C86.4043 75.6942 86.9727 74.7552 86.8341 74.6389C86.6917 74.5193 86.0765 75.4975 84.9395 75.8671C83.8314 76.2273 83.3326 75.6502 82.3866 75.7972C81.1637 75.9872 80.4366 77.1938 79.2961 79.1469C78.2861 80.8766 78.159 81.5724 76.743 85.009C76.3418 85.9825 76.0188 86.736 75.7708 87.3315C72.9907 90.027 70.2333 92.758 67.501 95.5127C67.5537 95.429 67.6032 95.3501 67.6462 95.2815C68.8565 93.3512 69.021 92.3164 69.0034 91.5409C68.975 90.2846 68.3974 89.3278 67.2433 87.4653C66.1125 85.6401 65.041 84.4359 63.75 82.9988C62.0577 81.1151 61.2116 80.1731 60.8746 80.2351C58.4678 80.6775 57.8242 97.7008 60.8524 100.745C60.4274 101.061 60.0754 101.391 59.8208 101.716C57.2287 98.7264 52.7881 95.3863 47.869 94.975C44.8364 94.7215 43.1627 95.71 42.6422 96.0496C40.2368 97.619 38.8065 100.76 39.5248 101.646C40.1946 102.473 42.1292 100.594 45.9206 100.698C48.5662 100.77 50.6327 101.767 51.8595 102.359C54.4332 103.6 55.3745 104.821 57.272 105.657C56.3825 106.419 55.6777 107.369 55.2352 108.255C55.0818 108.419 54.9291 108.584 54.776 108.749C52.8181 107.603 50.6133 106.762 48.3022 106.569C45.2695 106.315 43.5958 107.304 43.0753 107.643C41.4541 108.701 40.2793 110.471 39.9033 111.785C39.6576 111.836 39.4302 111.895 39.222 111.958C38.4871 110.233 36.3 108.413 34.2665 107.496C30.766 105.918 26.219 106.336 25.7324 107.837C25.7169 107.885 25.713 107.932 25.7062 107.98C26.0899 104.764 26.6109 101.57 27.2618 98.3998C27.2839 98.4902 27.3116 98.5818 27.3485 98.6781C28.2127 100.933 30.5476 103.097 33.7305 104.219C36.2285 105.1 37.2749 104.644 37.5406 104.516C37.7945 104.394 38.8912 103.905 39.1599 102.933C39.6581 101.13 36.6073 95.8028 34.683 97.5897C28.5002 103.331 27.6518 98.682 27.3678 97.8995C27.8935 95.3931 28.4985 92.901 29.1771 90.4231C29.1888 90.4382 29.1989 90.4531 29.2111 90.4684C30.5619 92.1702 33.1615 93.3691 36.2164 93.422C38.614 93.4636 39.3974 92.7664 39.5933 92.5793C39.7804 92.4005 40.5988 91.6608 40.5713 90.7418C40.5203 89.0379 37.6023 87.6502 35.2676 87.4096C33.1162 87.1879 30.7995 87.8721 29.6503 88.7386C30.1847 86.883 30.7594 85.0355 31.3725 83.1959C32.9426 83.8621 35.1667 83.7725 37.3517 82.758C39.1535 81.9213 39.5039 81.118 39.5872 80.9075C39.6667 80.7065 40.0289 79.8588 39.7002 79.1835C39.0908 77.9314 36.4495 77.9526 34.6279 78.618C33.8776 78.8921 33.1646 79.3137 32.5535 79.7904C33.6399 76.7753 34.8242 73.7818 36.0979 70.8103L34.8214 70.4788C33.1944 74.2747 31.7758 78.1201 30.5566 82.0081C30.405 80.8678 30.0251 79.6531 29.5249 78.6662C28.0541 75.7643 24.9126 73.5873 23.8502 74.2936C23.6376 74.4349 23.5482 74.665 23.4673 74.939C22.8161 77.1435 23.3065 80.19 25.0217 82.9891C26.3677 85.186 27.4045 85.4944 27.6745 85.5642C27.9026 85.6231 28.7829 85.8756 29.5064 85.5504C29.0198 87.2825 28.5699 89.0221 28.1596 90.7694C27.6659 89.4961 26.6929 88.1394 25.664 87.2012C23.2912 85.0378 19.6078 84.1721 18.8589 85.2265C18.7092 85.4374 18.7049 85.6855 18.7237 85.9714C18.8746 88.2721 20.3818 90.9348 22.9472 92.9114C24.9608 94.4628 26.0351 94.3655 26.3113 94.3303C26.4739 94.3096 26.9652 94.2588 27.4389 94.0363C26.9992 96.1594 26.6149 98.2929 26.2826 100.435C25.6182 98.0386 23.3612 95.0487 21.2311 95.9999C17.4513 97.6878 13.0081 95.095 12.5191 96.2288C12.3918 96.5238 12.4972 96.828 12.619 97.1581C13.5982 99.8142 16.3028 102.388 20.0164 103.754C22.9311 104.827 24.1642 104.309 24.4775 104.163C24.6852 104.067 25.3706 103.769 25.8812 103.218C25.5141 105.97 25.2328 108.737 25.0347 111.516C24.2466 109.729 22.0268 107.846 19.9488 106.875C16.3037 105.172 11.5361 105.545 11.0067 107.11C10.9008 107.423 10.9843 107.725 11.1092 108.064C12.1144 110.79 14.8903 113.431 18.702 114.834C21.6936 115.935 22.9592 115.403 23.2809 115.254C23.5159 115.145 24.3459 114.785 24.8751 114.101C24.8073 115.385 24.755 116.672 24.7219 117.961C24.7124 118.329 24.7069 118.696 24.7 119.063C24.6571 119.135 24.6196 119.209 24.5947 119.286C24.4926 119.601 24.5621 119.904 24.682 120.235C24.6793 120.468 24.6779 120.702 24.6764 120.935C24.0095 120.307 23.214 119.363 22.2571 118.017C21.3937 116.803 20.5737 117.694 20.0471 118.728C19.2214 118.536 18.4338 118.655 17.8144 119.256C13.6607 123.286 9.00194 121.148 8.93603 122.35C8.91702 122.697 9.09583 122.972 9.32122 123.271C11.1348 125.678 14.6952 127.434 18.925 127.619C22.2447 127.764 23.3534 126.827 23.6311 126.575C23.7287 126.486 23.9473 126.295 24.184 126.026C24.3741 126.184 24.5592 126.327 24.7448 126.458C24.8178 128.765 24.9484 131.069 25.1421 133.37C24.9847 133.385 24.8341 133.411 24.7219 133.423C23.1139 133.594 22.5721 131.34 20.143 130.517C19.3363 130.243 17.7822 129.945 16.9632 130.517C16.8452 130.599 16.4428 130.909 15.8184 131.177C15.4494 131.336 15.1674 131.41 15.0553 131.441C14.0587 131.725 13.1356 132.502 12.5115 133.027C11.3383 134.014 10.7518 134.508 10.4764 135.405C10.3898 135.687 10.146 136.481 10.4764 137.255C10.6325 137.62 10.9949 138.164 12.3843 138.708C13.2101 139.032 15.6186 139.975 18.4895 138.972C19.1432 138.744 18.6442 138.826 21.1605 137.519C23.1402 136.491 24.298 136 24.4675 135.009C24.5271 134.66 24.467 134.236 24.7219 134.084C24.8635 134 25.0348 134.041 25.2057 134.104C25.3723 135.954 25.5803 137.8 25.8324 139.643H23.5671C20.5591 139.643 17.8606 141.382 16.5249 144.182L8.05139 161.939C7.51646 163.06 7.23364 164.314 7.23364 165.565V211.226C7.23364 215.729 10.7596 219.391 15.0936 219.391H34.8719C39.206 219.391 42.7319 215.729 42.7319 211.226V169.181C42.7319 168.156 42.5491 167.153 42.1885 166.198L34.1129 144.825C33.1334 142.233 31.0121 140.399 28.4762 139.831C29.2896 138.83 30.1043 137.829 30.9253 136.831C31.959 137.349 33.0962 137.775 34.3188 138.073C37.5534 138.863 38.8117 138.159 39.1301 137.965C39.4341 137.781 40.7519 137.029 40.9752 135.777C40.9991 135.643 41.0084 135.507 41.0067 135.37C44.3199 138.168 46.0482 139.547 47.311 139.087C48.3966 138.692 49.0164 137.396 49.3713 136.234C49.7419 136.287 50.135 136.342 50.5539 136.4C55.0917 137.029 57.3783 137.321 58.2531 136.205C59.4636 134.66 58.3146 131.68 57.9979 130.859C57.3096 129.074 56.2507 127.988 55.5929 127.328C54.7387 126.47 52.3042 124.025 48.4716 123.699C47.6384 123.628 46.8899 123.682 46.1274 123.848C45.8617 123.595 45.5813 123.348 45.2726 123.113C44.6843 122.665 44.1033 122.334 43.478 122.075C44.4372 120.983 45.3991 119.895 46.3655 118.811C46.5185 118.883 46.6637 118.953 46.7972 119.017C49.9632 120.545 50.6588 122.041 53.7034 122.828C55.0848 123.185 56.6486 123.59 57.0357 122.982C57.7235 121.901 54.8042 117.457 50.293 114.45C50.5971 114.115 50.9021 113.782 51.2069 113.448C51.6195 113.628 51.9829 113.803 52.2926 113.952C55.4586 115.48 56.1542 116.976 59.199 117.763C60.5802 118.12 62.144 118.525 62.5312 117.917C63.1448 116.953 60.8868 113.309 57.1889 110.399C58.2047 110.064 59.5516 109.693 61.2958 109.74C63.9413 109.813 66.0078 110.81 67.2347 111.402C70.4007 112.929 71.0963 114.425 74.1409 115.212C75.5222 115.569 77.0861 115.974 77.4732 115.366C78.4956 113.76 71.5512 104.712 63.2442 104.018C62.5994 103.964 62.0197 103.969 61.4958 104.009C61.4234 103.884 61.3448 103.756 61.262 103.626C64.0726 103.72 69.5616 102.885 74.2337 106.292C75.5808 107.275 78.1978 109.586 82.5776 111.485C83.9774 112.092 84.6813 112.39 84.8752 112.141C85.5691 111.249 79.7989 103.907 71.6808 100.291C68.4622 98.8568 66.4735 98.7211 65.059 98.9383C65.277 98.6801 65.4895 98.4137 65.694 98.1461C68.8551 94.9255 72.056 91.7387 75.2858 88.5947C75.1294 89.0969 75.1346 89.3642 75.3052 89.5591ZM34.7391 129.642C31.1687 128.442 26.8452 129.087 25.7179 130.453C25.5589 129.242 25.4208 128.029 25.307 126.815C26.9336 127.758 28.6309 128.011 31.8505 128.458C33.2218 128.648 34.3844 128.806 35.3677 128.905C35.4997 129.277 35.6406 129.612 35.804 129.932C35.823 129.969 35.8433 130.004 35.8626 130.041L35.8341 130.075C35.4675 129.91 35.1001 129.764 34.7391 129.642ZM25.2529 113.376C25.3547 113.025 25.3568 112.651 25.2791 112.266C25.3902 110.87 25.5289 109.479 25.6929 108.091C25.6887 108.304 25.7535 108.516 25.8419 108.747C26.8345 111.336 29.5165 113.822 33.1724 115.111C33.8543 115.352 34.4394 115.503 34.9433 115.596C34.7216 115.997 34.5517 116.388 34.4391 116.75C33.1928 115.71 31.5884 114.954 29.7681 115.756C29.2728 115.975 28.9788 116.773 28.7234 117.729C27.0417 117.759 25.6365 118.123 24.9673 118.74C24.9709 118.483 24.9696 118.226 24.9762 117.968C25.0139 116.5 25.0836 115.037 25.1818 113.578C25.2086 113.513 25.2327 113.445 25.2529 113.376ZM24.972 120.927C25.0445 121.082 25.1239 121.235 25.2063 121.388C25.1315 121.331 25.0549 121.269 24.9763 121.202C24.9742 121.111 24.9737 121.019 24.972 120.927ZM27.8432 139.718C27.6474 139.692 27.4498 139.672 27.2504 139.661C26.7901 137.287 26.365 134.914 26.0093 132.538C26.9448 134.08 28.4718 135.492 30.4168 136.563C29.5537 137.612 28.6978 138.665 27.8432 139.718ZM42.9128 121.864C41.6952 121.458 40.2664 121.264 38.2889 121.025C37.7878 120.302 37.2713 119.769 36.8894 119.385C36.6826 119.178 36.3651 118.766 35.9537 118.283C37.0196 117.928 38.6104 117.295 40.8583 117.356C42.9013 117.412 44.5968 118.019 45.829 118.565C44.8529 119.661 43.8817 120.761 42.9128 121.864ZM49.8134 114.139C48.617 113.388 47.3193 112.745 45.9533 112.293C46.0861 112.292 46.216 112.287 46.3537 112.291C48.0477 112.337 49.5026 112.763 50.6533 113.218C50.3733 113.525 50.0929 113.831 49.8134 114.139Z" fill="#CCCCCC"/>
</g>
<defs>
<clipPath id="clip0_15_266">
<rect width="273" height="226" fill="white"/>
</clipPath>
</defs>
</svg>
