<svg width="393" height="852" viewBox="0 0 393 852" fill="none" xmlns="http://www.w3.org/2000/svg">
<g clip-path="url(#clip0_73_2)">
<rect width="393" height="852" fill="#F9F9F9"/>
<path fill-rule="evenodd" clip-rule="evenodd" d="M-495 130.115H-469.781C-444.562 130.115 -394.125 130.115 -343.687 115.287C-295.542 100.46 -245.104 70.8046 -194.667 55.977C-144.229 41.1494 -93.7913 41.1494 -43.3537 65.8621C4.79136 90.5747 55.229 140 105.667 140C156.104 140 206.542 90.5747 256.98 80.6897C305.125 70.8046 355.562 100.46 380.781 115.287L406 130.115V-75H380.781C355.562 -75 305.125 -75 256.98 -75C206.542 -75 156.104 -75 105.667 -75C55.229 -75 4.79136 -75 -43.3537 -75C-93.7913 -75 -144.229 -75 -194.667 -75C-245.104 -75 -295.542 -75 -343.687 -75C-394.125 -75 -444.562 -75 -469.781 -75H-495V130.115Z" fill="url(#paint0_linear_73_2)" fill-opacity="0.9"/>
<path fill-rule="evenodd" clip-rule="evenodd" d="M-644 697L-611 709C-577 721 -511 745 -444 775C-377 805 -311 841 -244 823C-177 805 -111 733 -44 733C23 733 89 805 156 829C223 853 289 829 356 811C423 793 489 781 523 775L556 769V985H523C489 985 423 985 356 985C289 985 223 985 156 985C89 985 23 985 -44 985C-111 985 -177 985 -244 985C-311 985 -377 985 -444 985C-511 985 -577 985 -611 985H-644V697Z" fill="url(#paint1_linear_73_2)" fill-opacity="0.9"/>
<path d="M49.078 521.062C48.946 522.235 48.638 523.548 48.154 525H37.44V524.142C38.232 524.01 38.7307 523.863 38.936 523.702C39.1413 523.541 39.288 523.233 39.376 522.778L41.268 511.976C41.312 511.771 41.334 511.58 41.334 511.404C41.334 511.213 41.2313 511.059 41.026 510.942C40.8353 510.825 40.4393 510.715 39.838 510.612L39.97 509.754H50.376C50.376 510.502 50.2073 511.646 49.87 513.186L48.572 513.34C48.5573 512.328 48.528 511.697 48.484 511.448C48.44 511.184 48.3593 511.045 48.242 511.03C47.89 510.986 47.45 510.957 46.922 510.942L43.6 510.876L42.566 516.794H45.866C45.9833 516.794 46.1227 516.647 46.284 516.354C46.4453 516.046 46.6287 515.672 46.834 515.232L47.516 515.298C47.2667 516.677 47.1127 518.129 47.054 519.654L46.24 519.786C46.152 518.979 46.0787 518.473 46.02 518.268C45.976 518.063 45.9027 517.96 45.8 517.96H42.346L41.312 523.878L43.27 523.856C44.7513 523.812 45.6167 523.768 45.866 523.724C46.1153 523.665 46.3133 523.607 46.46 523.548C46.724 523.475 47.1933 522.609 47.868 520.952L49.078 521.062ZM64.3635 525.198C63.6009 525.198 63.2195 524.685 63.2195 523.658C63.2195 523.189 63.6522 521.37 64.5175 518.202C64.7229 517.425 64.8255 516.845 64.8255 516.464C64.8255 515.98 64.5909 515.738 64.1215 515.738C63.5202 515.738 62.8822 516.09 62.2075 516.794C61.5329 517.498 60.9755 518.312 60.5355 519.236C60.0955 520.145 59.7215 521.113 59.4135 522.14C59.1202 523.167 58.9735 524.083 58.9735 524.89C58.2842 524.919 57.6829 525.022 57.1695 525.198L56.8175 524.912C56.9642 524.457 57.2135 523.467 57.5655 521.942L58.5775 517.41C58.6362 517.146 58.6655 516.838 58.6655 516.486C58.6655 515.987 58.4382 515.738 57.9835 515.738C57.3822 515.738 56.7442 516.09 56.0695 516.794C55.4095 517.483 54.8229 518.356 54.3095 519.412C53.4735 521.157 53.0555 522.983 53.0555 524.89C52.3955 524.919 51.7942 525.022 51.2515 525.198L50.8995 524.912C51.1635 524.091 51.4055 523.101 51.6255 521.942L52.5715 516.706C52.6009 516.559 52.6155 516.405 52.6155 516.244C52.6155 515.951 52.0509 515.701 50.9215 515.496L51.0315 514.792C52.6889 514.587 53.8475 514.484 54.5075 514.484L54.7055 514.704L53.7595 518.532L53.8915 518.576C54.2875 517.535 54.9329 516.559 55.8275 515.65C56.7369 514.726 57.6902 514.264 58.6875 514.264C59.8609 514.264 60.4475 514.843 60.4475 516.002C60.4475 516.589 60.2642 517.432 59.8975 518.532L60.0295 518.576C60.4695 517.52 61.1369 516.537 62.0315 515.628C62.9262 514.719 63.8869 514.264 64.9135 514.264C66.1455 514.264 66.7615 514.858 66.7615 516.046C66.7615 516.457 66.4829 517.747 65.9255 519.918C65.3682 522.074 65.0895 523.277 65.0895 523.526C65.0895 523.775 65.2069 523.9 65.4415 523.9C65.6322 523.9 66.0795 523.724 66.7835 523.372L67.1575 523.966C66.0135 524.787 65.0822 525.198 64.3635 525.198ZM67.9222 529.818L67.5702 529.532C67.8342 528.711 68.0762 527.721 68.2962 526.562L70.1442 516.706C70.1735 516.559 70.1882 516.405 70.1882 516.244C70.1882 515.951 69.6235 515.701 68.4942 515.496L68.6042 514.792C70.2615 514.587 71.4202 514.484 72.0802 514.484L72.2782 514.704L71.4862 518.532L71.6622 518.576C72.9529 515.701 74.4782 514.264 76.2382 514.264C77.0009 514.264 77.5729 514.55 77.9542 515.122C78.3355 515.694 78.5262 516.427 78.5262 517.322C78.5262 519.61 77.9395 521.495 76.7662 522.976C75.6075 524.457 74.1849 525.198 72.4982 525.198C71.9409 525.198 71.2222 525.037 70.3422 524.714C70.0342 526.606 69.8802 528.205 69.8802 529.51C69.0589 529.539 68.4062 529.642 67.9222 529.818ZM71.0242 523.328C71.7282 523.753 72.4469 523.966 73.1802 523.966C73.9135 523.966 74.3975 523.849 74.6322 523.614C75.1309 523.159 75.5709 522.345 75.9522 521.172C76.3482 519.984 76.5462 518.928 76.5462 518.004C76.5462 516.493 76.2089 515.738 75.5342 515.738C74.6689 515.738 73.7449 516.603 72.7622 518.334C71.7795 520.065 71.2002 521.729 71.0242 523.328ZM87.3881 522.8C86.9187 523.504 86.3027 524.083 85.5401 524.538C84.7921 524.978 83.9047 525.198 82.8781 525.198C81.8514 525.198 81.0374 524.875 80.4361 524.23C79.8494 523.57 79.5561 522.653 79.5561 521.48C79.5561 519.793 80.0327 518.195 80.9861 516.684C81.4407 515.965 82.0494 515.386 82.8121 514.946C83.5747 514.491 84.4694 514.264 85.4961 514.264C86.5227 514.264 87.3367 514.594 87.9381 515.254C88.5394 515.914 88.8401 516.838 88.8401 518.026C88.8401 519.757 88.3561 521.348 87.3881 522.8ZM81.6241 521.084C81.6241 523.049 82.2767 524.032 83.5821 524.032C84.2421 524.032 84.8141 523.841 85.2981 523.46C85.5914 523.225 85.9067 522.558 86.2441 521.458C86.5961 520.358 86.7721 519.287 86.7721 518.246C86.7721 516.369 86.1121 515.43 84.7921 515.43C84.1467 515.43 83.5821 515.621 83.0981 516.002C82.8047 516.237 82.4821 516.904 82.1301 518.004C81.7927 519.104 81.6241 520.131 81.6241 521.084ZM99.7435 525.198H98.7095L97.7635 520.226L97.6755 520.204C96.8102 521.832 95.6662 523.497 94.2435 525.198H93.2095L91.5375 516.354C91.4642 515.958 91.3395 515.716 91.1635 515.628C90.9875 515.525 90.5328 515.437 89.7995 515.364L89.9095 514.66C91.4935 514.455 92.5202 514.352 92.9895 514.352L93.1875 514.572L94.5515 522.954L94.6395 522.976C96.3848 520.776 97.2575 519.016 97.2575 517.696V517.542L97.0375 516.354C96.9642 515.958 96.8542 515.716 96.7075 515.628C96.5755 515.525 96.2162 515.437 95.6295 515.364L95.7395 514.66C97.1622 514.455 98.0788 514.352 98.4895 514.352L98.6875 514.572L100.051 522.954L100.139 522.976C100.887 521.949 101.606 520.805 102.295 519.544C102.985 518.268 103.329 517.212 103.329 516.376C103.329 516.112 103.241 515.907 103.065 515.76C102.889 515.613 102.706 515.525 102.515 515.496C102.339 515.452 102.039 515.408 101.613 515.364L101.723 514.66C103.249 514.455 104.275 514.352 104.803 514.352L105.001 514.572C105.089 514.733 105.133 514.997 105.133 515.364C105.133 516.229 104.759 517.388 104.011 518.84C102.853 521.099 101.43 523.218 99.7435 525.198ZM112.517 522.426L113.045 522.998C112.488 523.599 111.835 524.12 111.087 524.56C110.339 524.985 109.591 525.198 108.843 525.198C108.095 525.198 107.421 524.89 106.819 524.274C106.218 523.643 105.917 522.705 105.917 521.458C105.917 519.449 106.467 517.747 107.567 516.354C108.682 514.961 110.009 514.264 111.549 514.264C112.18 514.264 112.686 514.425 113.067 514.748C113.463 515.056 113.661 515.525 113.661 516.156C113.661 517.344 113.023 518.29 111.747 518.994C110.662 519.61 109.386 520.035 107.919 520.27C107.89 520.446 107.875 520.695 107.875 521.018C107.875 521.957 108.015 522.624 108.293 523.02C108.572 523.401 109.063 523.592 109.767 523.592C110.486 523.592 111.403 523.203 112.517 522.426ZM108.029 519.324C109.188 519.031 110.09 518.649 110.735 518.18C111.395 517.696 111.725 517.153 111.725 516.552C111.725 515.848 111.388 515.496 110.713 515.496C110.244 515.496 109.833 515.65 109.481 515.958C109.203 516.251 108.917 516.721 108.623 517.366C108.345 518.011 108.147 518.664 108.029 519.324ZM121.901 516.706L120.427 516.42C120.28 516.42 120.075 516.581 119.811 516.904C119.224 517.593 118.594 518.715 117.919 520.27C117.244 521.81 116.907 523.35 116.907 524.89C116.247 524.919 115.646 525.022 115.103 525.198L114.751 524.912C115.015 524.091 115.257 523.101 115.477 521.942L116.423 516.706C116.452 516.559 116.467 516.405 116.467 516.244C116.467 515.951 115.902 515.701 114.773 515.496L114.883 514.792C116.54 514.587 117.699 514.484 118.359 514.484L118.557 514.704L117.611 518.532L117.765 518.576C118.146 517.711 118.579 516.941 119.063 516.266C120.031 514.931 120.97 514.264 121.879 514.264C122.554 514.264 122.891 514.433 122.891 514.77C122.891 515.181 122.774 515.606 122.539 516.046C122.319 516.486 122.106 516.706 121.901 516.706ZM142.855 525H136.673V524.142C137.627 523.995 138.221 523.849 138.455 523.702C138.69 523.541 138.851 523.233 138.939 522.778L139.621 518.862L136.959 511.58C136.842 511.257 136.71 511.052 136.563 510.964C136.431 510.876 136.109 510.766 135.595 510.634L135.727 509.754H140.985L140.919 510.656L139.379 511.052C139.262 511.081 139.203 511.133 139.203 511.206C139.203 511.265 139.233 511.382 139.291 511.558L140.963 516.42C141.037 516.64 141.073 516.853 141.073 517.058H141.293L144.571 512.328C144.997 511.697 145.209 511.323 145.209 511.206C145.209 511.089 145.121 510.993 144.945 510.92C144.784 510.832 144.469 510.737 143.999 510.634L144.109 509.754H148.729L148.663 510.678C148.003 510.81 147.534 510.957 147.255 511.118C146.977 511.265 146.713 511.514 146.463 511.866L141.799 518.686L141.051 522.91C141.022 523.057 141.007 523.189 141.007 523.306C141.007 523.673 141.176 523.871 141.513 523.9L142.965 524.142L142.855 525ZM155.322 522.8C154.852 523.504 154.236 524.083 153.474 524.538C152.726 524.978 151.838 525.198 150.812 525.198C149.785 525.198 148.971 524.875 148.37 524.23C147.783 523.57 147.49 522.653 147.49 521.48C147.49 519.793 147.966 518.195 148.92 516.684C149.374 515.965 149.983 515.386 150.746 514.946C151.508 514.491 152.403 514.264 153.43 514.264C154.456 514.264 155.27 514.594 155.872 515.254C156.473 515.914 156.774 516.838 156.774 518.026C156.774 519.757 156.29 521.348 155.322 522.8ZM149.558 521.084C149.558 523.049 150.21 524.032 151.516 524.032C152.176 524.032 152.748 523.841 153.232 523.46C153.525 523.225 153.84 522.558 154.178 521.458C154.53 520.358 154.706 519.287 154.706 518.246C154.706 516.369 154.046 515.43 152.726 515.43C152.08 515.43 151.516 515.621 151.032 516.002C150.738 516.237 150.416 516.904 150.064 518.004C149.726 519.104 149.558 520.131 149.558 521.084ZM168.029 523.372L168.403 523.966C167.259 524.787 166.328 525.198 165.609 525.198C164.978 525.198 164.663 524.831 164.663 524.098C164.663 523.79 164.788 523.071 165.037 521.942L165.257 520.93L165.125 520.886C164.538 522.177 163.79 523.218 162.881 524.01C161.986 524.802 161.077 525.198 160.153 525.198C158.95 525.198 158.349 524.479 158.349 523.042C158.349 522.558 158.444 521.891 158.635 521.04L159.581 516.574C159.61 516.427 159.625 516.273 159.625 516.112C159.625 515.819 159.06 515.569 157.931 515.364L158.041 514.66C159.698 514.455 160.857 514.352 161.517 514.352L161.715 514.572C161.686 515.305 161.605 515.973 161.473 516.574L160.615 520.754C160.424 521.707 160.329 522.323 160.329 522.602C160.329 523.306 160.593 523.658 161.121 523.658C161.561 523.658 162.052 523.423 162.595 522.954C163.138 522.47 163.658 521.825 164.157 521.018C164.656 520.211 165.081 519.229 165.433 518.07C165.785 516.897 165.961 515.731 165.961 514.572C166.636 514.543 167.237 514.44 167.765 514.264L168.117 514.55C167.853 515.371 167.611 516.361 167.391 517.52L166.445 522.712C166.386 523.005 166.357 523.277 166.357 523.526C166.357 523.775 166.452 523.9 166.643 523.9C166.863 523.9 167.325 523.724 168.029 523.372ZM176.708 516.706L175.234 516.42C175.087 516.42 174.882 516.581 174.618 516.904C174.031 517.593 173.4 518.715 172.726 520.27C172.051 521.81 171.714 523.35 171.714 524.89C171.054 524.919 170.452 525.022 169.91 525.198L169.558 524.912C169.822 524.091 170.064 523.101 170.284 521.942L171.23 516.706C171.259 516.559 171.274 516.405 171.274 516.244C171.274 515.951 170.709 515.701 169.58 515.496L169.69 514.792C171.347 514.587 172.506 514.484 173.166 514.484L173.364 514.704L172.418 518.532L172.572 518.576C172.953 517.711 173.386 516.941 173.87 516.266C174.838 514.931 175.776 514.264 176.686 514.264C177.36 514.264 177.698 514.433 177.698 514.77C177.698 515.181 177.58 515.606 177.346 516.046C177.126 516.486 176.913 516.706 176.708 516.706ZM200.805 525H195.283V524.142C196.031 524.01 196.515 523.871 196.735 523.724C196.97 523.563 197.117 523.306 197.175 522.954L198.671 512.9C198.73 512.519 198.796 512.24 198.869 512.064H198.693L192.775 524.56H190.905L188.815 512.02H188.661L186.901 522.756C186.857 522.991 186.835 523.181 186.835 523.328C186.835 523.68 187.033 523.885 187.429 523.944L188.749 524.142L188.639 525H183.403V524.142C184.225 523.995 184.745 523.841 184.965 523.68C185.2 523.519 185.354 523.218 185.427 522.778L187.187 511.976C187.217 511.712 187.231 511.551 187.231 511.492C187.231 511.257 187.129 511.081 186.923 510.964C186.733 510.832 186.337 510.715 185.735 510.612L185.845 509.754H190.465L192.313 521.326C192.357 521.59 192.379 521.773 192.379 521.876H192.599C192.614 521.817 192.629 521.766 192.643 521.722C192.673 521.663 192.695 521.605 192.709 521.546C192.739 521.487 192.761 521.451 192.775 521.436L198.209 509.754H202.543L202.499 510.612L201.531 510.876C201.238 510.964 201.077 511.133 201.047 511.382L199.353 522.756C199.309 523.005 199.287 523.196 199.287 523.328C199.287 523.665 199.485 523.871 199.881 523.944L200.915 524.142L200.805 525ZM206.417 509.05C206.798 509.05 207.106 509.153 207.341 509.358C207.576 509.549 207.693 509.835 207.693 510.216C207.693 510.583 207.576 510.891 207.341 511.14C207.106 511.375 206.798 511.492 206.417 511.492C205.625 511.492 205.229 511.081 205.229 510.26C205.229 509.923 205.332 509.637 205.537 509.402C205.757 509.167 206.05 509.05 206.417 509.05ZM207.143 523.372L207.517 523.966C206.593 524.787 205.676 525.198 204.767 525.198C203.975 525.198 203.579 524.736 203.579 523.812C203.579 523.46 203.66 522.837 203.821 521.942L204.789 516.574C204.818 516.427 204.833 516.273 204.833 516.112C204.833 515.819 204.268 515.569 203.139 515.364L203.249 514.66C204.906 514.455 206.065 514.352 206.725 514.352L206.923 514.572C206.894 515.173 206.813 515.841 206.681 516.574L205.603 522.36C205.515 522.976 205.471 523.313 205.471 523.372C205.471 523.724 205.588 523.9 205.823 523.9C205.999 523.9 206.439 523.724 207.143 523.372ZM216.447 525.198C215.685 525.198 215.303 524.685 215.303 523.658C215.303 523.189 215.736 521.37 216.601 518.202C216.807 517.425 216.909 516.845 216.909 516.464C216.909 515.98 216.653 515.738 216.139 515.738C215.641 515.738 215.076 515.98 214.445 516.464C213.829 516.948 213.25 517.593 212.707 518.4C212.165 519.192 211.71 520.167 211.343 521.326C210.991 522.485 210.815 523.673 210.815 524.89C210.155 524.919 209.554 525.022 209.011 525.198L208.659 524.912C208.923 524.091 209.165 523.101 209.385 521.942L210.331 516.706C210.361 516.559 210.375 516.405 210.375 516.244C210.375 515.951 209.811 515.701 208.681 515.496L208.791 514.792C210.449 514.587 211.607 514.484 212.267 514.484L212.465 514.704C212.143 515.775 211.827 517.051 211.519 518.532L211.651 518.576C212.297 517.241 213.096 516.193 214.049 515.43C215.017 514.653 216 514.264 216.997 514.264C218.229 514.264 218.845 514.858 218.845 516.046C218.845 516.457 218.567 517.747 218.009 519.918C217.452 522.074 217.173 523.277 217.173 523.526C217.173 523.775 217.291 523.9 217.525 523.9C217.716 523.9 218.163 523.724 218.867 523.372L219.241 523.966C218.097 524.787 217.166 525.198 216.447 525.198ZM230.284 523.372L230.658 523.966C229.514 524.787 228.59 525.198 227.886 525.198C227.241 525.198 226.918 524.831 226.918 524.098C226.918 523.79 227.043 523.071 227.292 521.942L227.512 520.93L227.336 520.886C226.045 523.761 224.52 525.198 222.76 525.198C221.997 525.198 221.425 524.912 221.044 524.34C220.663 523.768 220.472 523.035 220.472 522.14C220.472 519.852 221.051 517.967 222.21 516.486C223.383 515.005 224.813 514.264 226.5 514.264C227.013 514.264 227.637 514.381 228.37 514.616L229.206 510.238C229.235 510.091 229.25 509.937 229.25 509.776C229.25 509.483 228.685 509.233 227.556 509.028L227.666 508.324C229.323 508.119 230.482 508.016 231.142 508.016L231.34 508.236C231.311 508.837 231.23 509.505 231.098 510.238L228.7 522.712C228.641 523.005 228.612 523.277 228.612 523.526C228.612 523.775 228.707 523.9 228.898 523.9C229.118 523.9 229.58 523.724 230.284 523.372ZM227.974 516.134C227.27 515.709 226.551 515.496 225.818 515.496C225.085 515.496 224.601 515.613 224.366 515.848C223.867 516.303 223.42 517.124 223.024 518.312C222.643 519.485 222.452 520.534 222.452 521.458C222.452 522.969 222.789 523.724 223.464 523.724C224.329 523.724 225.253 522.859 226.236 521.128C227.219 519.397 227.798 517.733 227.974 516.134ZM246.847 525.198H245.813L244.867 520.226L244.779 520.204C243.914 521.832 242.77 523.497 241.347 525.198H240.313L238.641 516.354C238.568 515.958 238.443 515.716 238.267 515.628C238.091 515.525 237.636 515.437 236.903 515.364L237.013 514.66C238.597 514.455 239.624 514.352 240.093 514.352L240.291 514.572L241.655 522.954L241.743 522.976C243.488 520.776 244.361 519.016 244.361 517.696V517.542L244.141 516.354C244.068 515.958 243.958 515.716 243.811 515.628C243.679 515.525 243.32 515.437 242.733 515.364L242.843 514.66C244.266 514.455 245.182 514.352 245.593 514.352L245.791 514.572L247.155 522.954L247.243 522.976C247.991 521.949 248.71 520.805 249.399 519.544C250.088 518.268 250.433 517.212 250.433 516.376C250.433 516.112 250.345 515.907 250.169 515.76C249.993 515.613 249.81 515.525 249.619 515.496C249.443 515.452 249.142 515.408 248.717 515.364L248.827 514.66C250.352 514.455 251.379 514.352 251.907 514.352L252.105 514.572C252.193 514.733 252.237 514.997 252.237 515.364C252.237 516.229 251.863 517.388 251.115 518.84C249.956 521.099 248.534 523.218 246.847 525.198ZM256.497 509.05C256.878 509.05 257.186 509.153 257.421 509.358C257.656 509.549 257.773 509.835 257.773 510.216C257.773 510.583 257.656 510.891 257.421 511.14C257.186 511.375 256.878 511.492 256.497 511.492C255.705 511.492 255.309 511.081 255.309 510.26C255.309 509.923 255.412 509.637 255.617 509.402C255.837 509.167 256.13 509.05 256.497 509.05ZM257.223 523.372L257.597 523.966C256.673 524.787 255.756 525.198 254.847 525.198C254.055 525.198 253.659 524.736 253.659 523.812C253.659 523.46 253.74 522.837 253.901 521.942L254.869 516.574C254.898 516.427 254.913 516.273 254.913 516.112C254.913 515.819 254.348 515.569 253.219 515.364L253.329 514.66C254.986 514.455 256.145 514.352 256.805 514.352L257.003 514.572C256.974 515.173 256.893 515.841 256.761 516.574L255.683 522.36C255.595 522.976 255.551 523.313 255.551 523.372C255.551 523.724 255.668 523.9 255.903 523.9C256.079 523.9 256.519 523.724 257.223 523.372ZM264.085 523.394L264.371 524.01C263.169 524.802 262.113 525.198 261.203 525.198C260.617 525.198 260.169 525.051 259.861 524.758C259.553 524.45 259.399 524.061 259.399 523.592C259.399 523.108 259.458 522.558 259.575 521.942L260.697 515.782H259.179L259.267 514.858L260.499 514.594C260.793 514.521 261.005 514.367 261.137 514.132C261.269 513.883 261.585 513.098 262.083 511.778L263.381 511.646L262.853 514.484H265.185L264.965 515.782H262.589L261.379 522.338C261.306 522.822 261.269 523.13 261.269 523.262C261.269 523.687 261.504 523.9 261.973 523.9C262.443 523.9 263.147 523.731 264.085 523.394ZM273.134 525.198C272.371 525.198 271.99 524.685 271.99 523.658C271.99 523.189 272.422 521.37 273.288 518.202C273.493 517.425 273.596 516.845 273.596 516.464C273.596 515.98 273.339 515.738 272.826 515.738C272.327 515.738 271.762 515.98 271.132 516.464C270.516 516.948 269.936 517.593 269.394 518.4C268.851 519.192 268.396 520.167 268.03 521.326C267.678 522.485 267.502 523.673 267.502 524.89C266.842 524.919 266.24 525.022 265.698 525.198L265.346 524.912C265.61 524.091 265.852 523.101 266.072 521.942L268.316 510.238C268.345 510.091 268.36 509.937 268.36 509.776C268.36 509.483 267.795 509.233 266.666 509.028L266.776 508.324C268.433 508.119 269.592 508.016 270.252 508.016L270.45 508.236C270.42 508.837 270.34 509.505 270.208 510.238L269.46 514.11C269.401 514.418 269.24 514.961 268.976 515.738C268.712 516.501 268.521 517.131 268.404 517.63L268.206 518.532L268.338 518.576C268.983 517.241 269.782 516.193 270.736 515.43C271.704 514.653 272.686 514.264 273.684 514.264C274.916 514.264 275.532 514.858 275.532 516.046C275.532 516.457 275.253 517.747 274.696 519.918C274.138 522.074 273.86 523.277 273.86 523.526C273.86 523.775 273.977 523.9 274.212 523.9C274.402 523.9 274.85 523.724 275.554 523.372L275.928 523.966C274.784 524.787 273.852 525.198 273.134 525.198ZM294.024 520.424C293.863 521.759 293.518 523.284 292.99 525H282.276V524.142C283.068 524.01 283.567 523.863 283.772 523.702C283.977 523.541 284.124 523.233 284.212 522.778L286.104 511.976C286.148 511.771 286.17 511.58 286.17 511.404C286.17 511.213 286.067 511.059 285.862 510.942C285.671 510.825 285.275 510.715 284.674 510.612L284.806 509.754H290.35L290.284 510.612L288.876 510.876C288.627 510.935 288.465 511.037 288.392 511.184C288.377 511.243 288.363 511.331 288.348 511.448L286.148 523.878L288.106 523.856C289.749 523.827 290.709 523.775 290.988 523.702C291.267 523.614 291.883 522.485 292.836 520.314L294.024 520.424ZM301.43 522.426L301.958 522.998C301.4 523.599 300.748 524.12 300 524.56C299.252 524.985 298.504 525.198 297.756 525.198C297.008 525.198 296.333 524.89 295.732 524.274C295.13 523.643 294.83 522.705 294.83 521.458C294.83 519.449 295.38 517.747 296.48 516.354C297.594 514.961 298.922 514.264 300.462 514.264C301.092 514.264 301.598 514.425 301.98 514.748C302.376 515.056 302.574 515.525 302.574 516.156C302.574 517.344 301.936 518.29 300.66 518.994C299.574 519.61 298.298 520.035 296.832 520.27C296.802 520.446 296.788 520.695 296.788 521.018C296.788 521.957 296.927 522.624 297.206 523.02C297.484 523.401 297.976 523.592 298.68 523.592C299.398 523.592 300.315 523.203 301.43 522.426ZM296.942 519.324C298.1 519.031 299.002 518.649 299.648 518.18C300.308 517.696 300.638 517.153 300.638 516.552C300.638 515.848 300.3 515.496 299.626 515.496C299.156 515.496 298.746 515.65 298.394 515.958C298.115 516.251 297.829 516.721 297.536 517.366C297.257 518.011 297.059 518.664 296.942 519.324ZM313.321 523.372L313.695 523.966C312.551 524.787 311.627 525.198 310.923 525.198C310.278 525.198 309.955 524.831 309.955 524.098C309.955 523.79 310.08 523.071 310.329 521.942L310.549 520.93L310.373 520.886C309.083 523.761 307.557 525.198 305.797 525.198C305.035 525.198 304.463 524.912 304.081 524.34C303.7 523.768 303.509 523.035 303.509 522.14C303.509 519.852 304.089 517.967 305.247 516.486C306.421 515.005 307.851 514.264 309.537 514.264C310.139 514.264 310.835 514.418 311.627 514.726C312.053 514.623 312.529 514.469 313.057 514.264L313.409 514.55C313.145 515.313 312.896 516.332 312.661 517.608L311.737 522.712C311.679 523.005 311.649 523.277 311.649 523.526C311.649 523.775 311.745 523.9 311.935 523.9C312.155 523.9 312.617 523.724 313.321 523.372ZM311.011 516.134C310.307 515.709 309.589 515.496 308.855 515.496C308.122 515.496 307.638 515.613 307.403 515.848C306.905 516.303 306.457 517.124 306.061 518.312C305.68 519.485 305.489 520.534 305.489 521.458C305.489 522.969 305.827 523.724 306.501 523.724C307.367 523.724 308.291 522.859 309.273 521.128C310.256 519.397 310.835 517.733 311.011 516.134ZM321.985 516.706L320.511 516.42C320.364 516.42 320.159 516.581 319.895 516.904C319.308 517.593 318.678 518.715 318.003 520.27C317.328 521.81 316.991 523.35 316.991 524.89C316.331 524.919 315.73 525.022 315.187 525.198L314.835 524.912C315.099 524.091 315.341 523.101 315.561 521.942L316.507 516.706C316.536 516.559 316.551 516.405 316.551 516.244C316.551 515.951 315.986 515.701 314.857 515.496L314.967 514.792C316.624 514.587 317.783 514.484 318.443 514.484L318.641 514.704L317.695 518.532L317.849 518.576C318.23 517.711 318.663 516.941 319.147 516.266C320.115 514.931 321.054 514.264 321.963 514.264C322.638 514.264 322.975 514.433 322.975 514.77C322.975 515.181 322.858 515.606 322.623 516.046C322.403 516.486 322.19 516.706 321.985 516.706ZM331.582 525.198C330.819 525.198 330.438 524.685 330.438 523.658C330.438 523.189 330.871 521.37 331.736 518.202C331.941 517.425 332.044 516.845 332.044 516.464C332.044 515.98 331.787 515.738 331.274 515.738C330.775 515.738 330.211 515.98 329.58 516.464C328.964 516.948 328.385 517.593 327.842 518.4C327.299 519.192 326.845 520.167 326.478 521.326C326.126 522.485 325.95 523.673 325.95 524.89C325.29 524.919 324.689 525.022 324.146 525.198L323.794 524.912C324.058 524.091 324.3 523.101 324.52 521.942L325.466 516.706C325.495 516.559 325.51 516.405 325.51 516.244C325.51 515.951 324.945 515.701 323.816 515.496L323.926 514.792C325.583 514.587 326.742 514.484 327.402 514.484L327.6 514.704C327.277 515.775 326.962 517.051 326.654 518.532L326.786 518.576C327.431 517.241 328.231 516.193 329.184 515.43C330.152 514.653 331.135 514.264 332.132 514.264C333.364 514.264 333.98 514.858 333.98 516.046C333.98 516.457 333.701 517.747 333.144 519.918C332.587 522.074 332.308 523.277 332.308 523.526C332.308 523.775 332.425 523.9 332.66 523.9C332.851 523.9 333.298 523.724 334.002 523.372L334.376 523.966C333.232 524.787 332.301 525.198 331.582 525.198ZM342.207 522.426L342.735 522.998C342.178 523.599 341.525 524.12 340.777 524.56C340.029 524.985 339.281 525.198 338.533 525.198C337.785 525.198 337.11 524.89 336.509 524.274C335.908 523.643 335.607 522.705 335.607 521.458C335.607 519.449 336.157 517.747 337.257 516.354C338.372 514.961 339.699 514.264 341.239 514.264C341.87 514.264 342.376 514.425 342.757 514.748C343.153 515.056 343.351 515.525 343.351 516.156C343.351 517.344 342.713 518.29 341.437 518.994C340.352 519.61 339.076 520.035 337.609 520.27C337.58 520.446 337.565 520.695 337.565 521.018C337.565 521.957 337.704 522.624 337.983 523.02C338.262 523.401 338.753 523.592 339.457 523.592C340.176 523.592 341.092 523.203 342.207 522.426ZM337.719 519.324C338.878 519.031 339.78 518.649 340.425 518.18C341.085 517.696 341.415 517.153 341.415 516.552C341.415 515.848 341.078 515.496 340.403 515.496C339.934 515.496 339.523 515.65 339.171 515.958C338.892 516.251 338.606 516.721 338.313 517.366C338.034 518.011 337.836 518.664 337.719 519.324ZM351.591 516.706L350.117 516.42C349.97 516.42 349.765 516.581 349.501 516.904C348.914 517.593 348.283 518.715 347.609 520.27C346.934 521.81 346.597 523.35 346.597 524.89C345.937 524.919 345.335 525.022 344.793 525.198L344.441 524.912C344.705 524.091 344.947 523.101 345.167 521.942L346.113 516.706C346.142 516.559 346.157 516.405 346.157 516.244C346.157 515.951 345.592 515.701 344.463 515.496L344.573 514.792C346.23 514.587 347.389 514.484 348.049 514.484L348.247 514.704L347.301 518.532L347.455 518.576C347.836 517.711 348.269 516.941 348.753 516.266C349.721 514.931 350.659 514.264 351.569 514.264C352.243 514.264 352.581 514.433 352.581 514.77C352.581 515.181 352.463 515.606 352.229 516.046C352.009 516.486 351.796 516.706 351.591 516.706ZM358.68 517.41L358.724 516.53C358.724 516.046 358.658 515.731 358.526 515.584C358.408 515.437 358.02 515.364 357.36 515.364C356.7 515.364 356.194 515.481 355.842 515.716C355.724 515.804 355.622 515.98 355.534 516.244C355.446 516.493 355.402 516.706 355.402 516.882C355.402 517.058 355.416 517.212 355.446 517.344C355.49 517.461 355.563 517.579 355.666 517.696C355.768 517.813 355.849 517.909 355.908 517.982C355.981 518.055 356.113 518.151 356.304 518.268C356.494 518.385 356.626 518.466 356.7 518.51C356.788 518.554 356.949 518.642 357.184 518.774C357.433 518.891 357.668 519.009 357.888 519.126C358.328 519.361 358.782 519.683 359.252 520.094C359.721 520.49 359.956 521.011 359.956 521.656C359.956 522.668 359.552 523.511 358.746 524.186C357.939 524.861 356.934 525.198 355.732 525.198C354.544 525.198 353.568 524.978 352.806 524.538C352.835 523.614 353.018 522.609 353.356 521.524H354.456C354.397 522.037 354.368 522.477 354.368 522.844C354.368 523.636 354.918 524.032 356.018 524.032C356.898 524.032 357.477 523.922 357.756 523.702C357.873 523.599 357.976 523.409 358.064 523.13C358.166 522.851 358.218 522.624 358.218 522.448C358.218 522.257 358.196 522.103 358.152 521.986C358.122 521.854 358.056 521.737 357.954 521.634C357.851 521.517 357.77 521.421 357.712 521.348C357.653 521.275 357.528 521.187 357.338 521.084C357.147 520.967 357.015 520.886 356.942 520.842C356.883 520.798 356.729 520.717 356.48 520.6C355.526 520.131 354.852 519.676 354.456 519.236C354.06 518.781 353.862 518.136 353.862 517.3C353.862 516.464 354.228 515.753 354.962 515.166C355.695 514.565 356.67 514.264 357.888 514.264C358.709 514.264 359.508 514.411 360.286 514.704C360.212 515.569 360.044 516.471 359.78 517.41H358.68Z" fill="black"/>
<g clip-path="url(#clip1_73_2)">
<path d="M249.41 303.503C249.37 303.51 249.31 303.521 249.237 303.533C247.817 303.778 239.228 305.154 230.568 301.728C226.9 300.276 228.151 299.914 219.981 294.868C210.402 288.951 207.944 288.992 207.231 286.233C205.807 280.724 213.412 272.064 218.446 272.634C219.771 272.784 221.191 273.605 223.398 273.049C223.883 272.926 226.007 272.391 227.042 270.565C227.965 268.937 227.183 267.762 227.554 266.426C228.529 262.92 236.654 261.171 243.778 262.407C247.875 263.118 251.062 265.059 257.268 268.912C268.07 275.619 273.472 278.973 274.685 284.111C275.836 288.98 273.075 291.079 275.083 296.292C276.953 301.145 279.923 300.821 280.945 304.748C282.59 311.066 276.485 318.001 273.942 320.89C271.154 324.057 268.488 325.795 264.948 328.103C260.505 331 258.283 332.448 255.612 332.301C250.769 332.033 236.379 332.943 236.192 328.78C236.121 327.22 218.669 328.497 227.263 311.701C228.317 309.641 248.966 311.842 249.238 310.658" fill="#2F2E41"/>
<path d="M257.767 314.251L272.61 337.25L230.004 346.2L232.718 317.407L257.767 314.251Z" fill="#FFB6B6"/>
<path opacity="0.1" d="M257.767 314.251L272.61 337.25L230.004 346.2L232.718 317.407L257.767 314.251Z" fill="black"/>
<path d="M226.812 331.283L272.766 329.294L293.19 340.896L292.233 415.483L313.614 457.583L205.75 436.367L214.048 404.544L210.218 337.581L226.812 331.283Z" fill="#ED9B38"/>
<path d="M68.2376 476.181C66.7705 473.779 66.5972 470.811 67.7742 468.242L85.2643 430.068C86.5697 427.219 89.3758 425.378 92.4132 425.378H313.327C316.28 425.378 318.967 427.065 320.338 429.782L339.085 466.904C340.381 469.47 340.296 472.483 338.857 474.966C337.419 477.448 334.895 478.937 332.105 478.948L74.9542 480H74.922C72.1959 480 69.6987 478.574 68.2376 476.181Z" fill="white"/>
<path d="M68.2376 476.181C66.7705 473.779 66.5972 470.811 67.7742 468.242L85.2643 430.068C86.5697 427.219 89.3758 425.378 92.4132 425.378H313.327C316.28 425.378 318.967 427.065 320.338 429.782L339.085 466.904C340.381 469.47 340.296 472.483 338.857 474.966C337.419 477.448 334.895 478.937 332.105 478.948L74.9542 480H74.922C72.1959 480 69.6987 478.574 68.2376 476.181ZM92.4132 426.241C89.6946 426.241 87.1831 427.889 86.0147 430.439L68.5246 468.613C67.4711 470.912 67.6261 473.569 68.9393 475.719C70.2472 477.861 72.482 479.137 74.9221 479.137H74.9509L332.102 478.085C334.599 478.075 336.858 476.742 338.145 474.521C339.433 472.299 339.509 469.601 338.349 467.305L319.602 430.182C318.375 427.752 315.97 426.241 313.327 426.241H92.4132Z" fill="#3F3D56"/>
<path d="M292.76 465.406L201.595 458.896C200.249 458.8 199.175 457.857 198.86 456.494C198.545 455.132 199.088 453.785 200.245 453.064L220.404 440.5C220.916 440.18 221.503 440.025 222.099 440.055L300.956 443.779C301.998 443.827 302.93 444.419 303.447 445.361C303.964 446.302 303.98 447.436 303.491 448.393L295.64 463.745C295.113 464.776 294.08 465.414 292.967 465.414C292.898 465.414 292.829 465.411 292.76 465.406Z" fill="#3F3D56"/>
<path d="M200.804 455.097L291.594 461.561L298.775 445.484L220.926 442.312L200.804 455.097Z" fill="white"/>
<path d="M245.481 321.998C260.549 321.998 272.764 309.31 272.764 293.658C272.764 278.006 260.549 265.318 245.481 265.318C230.413 265.318 218.199 278.006 218.199 293.658C218.199 309.31 230.413 321.998 245.481 321.998Z" fill="#FFB6B6"/>
<path d="M254.269 295.492C254.229 295.499 254.169 295.51 254.096 295.522C252.676 295.766 244.087 297.143 235.427 293.716C231.759 292.265 233.01 291.903 224.84 286.856C215.261 280.939 212.803 280.981 212.09 278.222C210.666 272.713 218.271 264.053 223.305 264.623C224.63 264.773 226.05 265.594 228.257 265.037C228.742 264.915 230.865 264.38 231.901 262.554C232.824 260.925 232.042 259.751 232.413 258.415C233.388 254.909 241.513 253.159 248.637 254.396C252.734 255.107 255.921 257.048 262.127 260.901C272.929 267.608 278.33 270.961 279.544 276.099C280.695 280.969 277.933 283.067 279.942 288.28C281.812 293.134 284.782 292.81 285.804 296.737C287.449 303.055 281.344 309.99 278.801 312.879C276.013 316.046 273.347 317.784 269.807 320.092C265.363 322.988 263.142 324.437 260.471 324.289C255.628 324.022 250.812 319.463 250.624 315.3C250.554 313.74 251.18 313.272 252.731 307.909C253.377 305.675 253.825 303.83 254.097 302.647" fill="#2F2E41"/>
<path d="M272.968 447.333C274.723 447.405 276.059 449.038 276.156 450.808C276.256 452.645 275.027 454.338 273.55 455.212C271.819 456.237 269.659 456.401 267.71 456.225C265.958 456.066 264.051 455.5 262.923 453.997C261.974 452.732 261.625 450.82 262.432 449.384C263.232 447.961 264.934 447.567 266.357 448.139C267.864 448.743 268.811 450.167 268.821 451.849C268.831 453.713 267.795 455.436 266.34 456.467C264.771 457.579 262.797 457.936 260.929 457.932C258.895 457.927 256.869 457.483 254.997 456.659C253.243 455.888 251.491 454.775 250.237 453.262C249.061 451.845 248.357 449.878 249.01 448.039C249.545 446.531 250.897 445.606 252.446 445.734C253.864 445.851 255.298 446.705 255.927 448.066C256.637 449.601 256.318 451.443 255.415 452.816C254.371 454.401 252.722 455.292 250.891 455.42C248.942 455.557 247.012 454.838 245.408 453.726C243.924 452.696 242.619 451.378 241.025 450.521C240.258 450.109 239.423 449.847 238.555 449.848C237.449 449.849 236.386 450.226 235.31 450.445C234.399 450.631 233.459 450.739 232.56 450.436C231.79 450.177 231.07 449.703 230.585 449.022C230.126 448.378 229.965 447.572 230.225 446.808C230.429 446.208 231.354 446.466 231.148 447.072C230.673 448.47 232.303 449.497 233.444 449.625C234.309 449.722 235.202 449.462 236.037 449.259C236.908 449.048 237.797 448.832 238.697 448.855C241.885 448.936 243.992 451.767 246.562 453.302C249.265 454.917 253.222 455.03 254.877 451.821C255.478 450.656 255.602 449.107 254.776 448.018C254.088 447.111 252.866 446.568 251.759 446.744C250.368 446.965 249.675 448.341 249.726 449.709C249.788 451.383 250.911 452.743 252.109 453.746C254.776 455.978 258.312 457.115 261.723 456.916C263.324 456.822 265.025 456.389 266.268 455.282C267.342 454.326 268.075 452.771 267.817 451.281C267.594 449.992 266.553 449.014 265.295 448.884C264.008 448.751 263.003 449.7 262.946 451.035C262.881 452.537 263.74 453.79 264.984 454.474C266.394 455.249 268.103 455.345 269.665 455.26C271.324 455.171 273.052 454.717 274.213 453.404C275.203 452.285 275.579 450.625 274.666 449.33C274.264 448.758 273.658 448.355 272.968 448.327C272.354 448.302 272.351 447.307 272.968 447.333Z" fill="#ED9B38"/>
<path d="M229.335 446.267L229.823 443.132L256.909 389.357C257.357 388.466 258.42 388.121 259.277 388.587C260.135 389.053 260.467 390.157 260.019 391.047L232.946 444.799L230.732 447.027C230.47 447.289 230.093 447.345 229.77 447.17C229.448 446.995 229.277 446.64 229.335 446.267Z" fill="#3F3D56"/>
<path d="M247.797 412.054C250.853 412.652 253.727 414.001 256.178 415.989L256.316 416.02L256.343 415.877L285.863 420.68L283.724 379.894L306.096 367.165L300.808 436.108C299.663 440.511 295.264 443.082 291.047 441.814L253.47 430.586L253.564 430.106L253.433 430.069C250.429 430.911 247.276 430.993 244.236 430.308C236.61 428.705 231.225 423.318 232.208 418.277C233.191 413.236 240.169 410.45 247.797 412.054Z" fill="#FFB6B6"/>
<path d="M267.979 348.189L293.19 340.896C293.19 340.896 306.434 351.007 308.029 361.946C308.219 363.247 308.745 423.852 308.189 425.428C304.065 437.103 281.383 418.467 281.383 418.467L267.979 348.189Z" fill="#ED9B38"/>
<path d="M158.627 457.115L156.014 454.789C155.625 454.442 155.151 454.212 154.645 454.125L96.411 444.042C95.0819 443.812 94.1 442.815 93.8485 441.44C93.5972 440.065 94.1588 438.763 95.3144 438.043L116.09 425.094C116.784 424.661 117.601 424.525 118.392 424.711L192.228 442.039C193.664 442.376 194.622 443.581 194.669 445.109C194.716 446.637 193.834 447.903 192.422 448.334L161.55 457.767C161.257 457.856 160.958 457.9 160.662 457.9C159.925 457.9 159.204 457.629 158.627 457.115Z" fill="#3F3D56"/>
<path d="M130.583 381.919C133.47 383.12 136.037 385.021 138.071 387.464L138.201 387.522L138.255 387.388L166.321 398.036L196.287 347.635L212.854 358.3L178.108 416.178C176.164 420.267 171.369 421.905 167.468 419.813L132.694 401.241L132.876 400.789L132.754 400.726C129.651 400.948 126.542 400.394 123.687 399.111C116.504 396.005 112.225 389.637 114.129 384.888C116.032 380.14 123.398 378.81 130.583 381.919Z" fill="#FFB6B6"/>
<path d="M228.433 356.734L215.179 336.145C215.179 336.145 199.407 339.388 192.909 348.155C192.097 349.251 164.2 391.279 164.02 393.113C162.762 405.953 194.825 411.968 194.825 411.968L228.433 356.734Z" fill="#ED9B38"/>
<path d="M157.185 457.734L90.4302 448.15C88.196 447.829 86.352 446.166 85.7322 443.914L70.4004 388.172C69.8809 386.282 70.2687 384.326 71.4645 382.804C72.6603 381.282 74.427 380.495 76.3135 380.645L143.569 385.997C146.002 386.191 148.044 387.97 148.652 390.426L163.483 450.399C163.956 452.313 163.483 454.336 162.216 455.811C161.126 457.081 159.58 457.79 157.968 457.79C157.709 457.79 157.447 457.772 157.185 457.734Z" fill="#3F3D56"/>
<path d="M142.305 343.559C142.695 344.005 144.111 343.551 146.927 342.624C149.068 341.92 149.398 341.663 149.601 341.48C150.317 340.834 150.505 340.154 151.214 337.153C152.486 331.766 152.526 331.231 153.179 330.088C153.404 329.694 153.973 328.755 153.834 328.639C153.692 328.519 153.076 329.497 151.94 329.867C150.831 330.227 150.333 329.65 149.387 329.797C148.164 329.987 147.437 331.194 146.296 333.147C145.286 334.877 145.159 335.572 143.743 339.009C143.342 339.983 143.019 340.736 142.771 341.332C139.991 344.027 137.233 346.758 134.501 349.513C134.554 349.429 134.603 349.35 134.646 349.282C135.856 347.351 136.021 346.316 136.003 345.541C135.975 344.285 135.397 343.328 134.243 341.465C133.112 339.64 132.041 338.436 130.75 336.999C129.058 335.115 128.212 334.173 127.875 334.235C125.468 334.678 124.824 351.701 127.852 354.745C127.427 355.061 127.075 355.391 126.821 355.716C124.229 352.726 119.788 349.386 114.869 348.975C111.836 348.721 110.163 349.71 109.642 350.05C107.237 351.619 105.807 354.76 106.525 355.646C107.195 356.473 109.129 354.594 112.921 354.698C115.566 354.77 117.633 355.767 118.86 356.359C121.433 357.6 122.374 358.821 124.272 359.657C123.382 360.419 122.678 361.369 122.235 362.255C122.082 362.419 121.929 362.584 121.776 362.749C119.818 361.603 117.613 360.762 115.302 360.569C112.27 360.315 110.596 361.304 110.075 361.643C108.454 362.701 107.279 364.471 106.903 365.785C106.658 365.836 106.43 365.895 106.222 365.958C105.487 364.233 103.3 362.413 101.266 361.496C97.766 359.918 93.219 360.336 92.7324 361.837C92.7169 361.885 92.713 361.932 92.7062 361.98C93.0899 358.764 93.6109 355.57 94.2618 352.4C94.2839 352.49 94.3116 352.582 94.3485 352.678C95.2127 354.933 97.5476 357.097 100.73 358.219C103.229 359.1 104.275 358.644 104.541 358.516C104.795 358.394 105.891 357.905 106.16 356.933C106.658 355.13 103.607 349.803 101.683 351.59C95.5002 357.331 94.6518 352.682 94.3678 351.899C94.8935 349.393 95.4985 346.901 96.1771 344.423C96.1888 344.438 96.1989 344.453 96.2111 344.468C97.5619 346.17 100.161 347.369 103.216 347.422C105.614 347.464 106.397 346.766 106.593 346.579C106.78 346.401 107.599 345.661 107.571 344.742C107.52 343.038 104.602 341.65 102.268 341.41C100.116 341.188 97.7995 341.872 96.6503 342.739C97.1847 340.883 97.7594 339.035 98.3725 337.196C99.9426 337.862 102.167 337.773 104.352 336.758C106.154 335.921 106.504 335.118 106.587 334.908C106.667 334.707 107.029 333.859 106.7 333.183C106.091 331.931 103.45 331.953 101.628 332.618C100.878 332.892 100.165 333.314 99.5535 333.79C100.64 330.775 101.824 327.782 103.098 324.81L101.821 324.479C100.194 328.275 98.7758 332.12 97.5566 336.008C97.405 334.868 97.0251 333.653 96.5249 332.666C95.0541 329.764 91.9126 327.587 90.8502 328.294C90.6376 328.435 90.5482 328.665 90.4673 328.939C89.8161 331.143 90.3065 334.19 92.0217 336.989C93.3677 339.186 94.4045 339.494 94.6745 339.564C94.9026 339.623 95.7829 339.876 96.5064 339.55C96.0198 341.282 95.5699 343.022 95.1596 344.769C94.6659 343.496 93.6929 342.139 92.664 341.201C90.2912 339.038 86.6078 338.172 85.8589 339.227C85.7092 339.437 85.7049 339.686 85.7237 339.971C85.8746 342.272 87.3818 344.935 89.9472 346.911C91.9608 348.463 93.0351 348.366 93.3113 348.33C93.4739 348.31 93.9652 348.259 94.4389 348.036C93.9992 350.159 93.6149 352.293 93.2826 354.435C92.6182 352.039 90.3612 349.049 88.2311 350C84.4513 351.688 80.0081 349.095 79.5191 350.229C79.3918 350.524 79.4972 350.828 79.619 351.158C80.5982 353.814 83.3028 356.388 87.0164 357.754C89.9311 358.827 91.1642 358.309 91.4775 358.163C91.6852 358.067 92.3706 357.769 92.8812 357.218C92.5141 359.97 92.2328 362.737 92.0347 365.516C91.2466 363.729 89.0268 361.846 86.9488 360.875C83.3037 359.172 78.5361 359.545 78.0067 361.11C77.9008 361.423 77.9843 361.725 78.1092 362.064C79.1144 364.79 81.8903 367.431 85.702 368.834C88.6936 369.935 89.9592 369.403 90.2809 369.254C90.5159 369.145 91.3459 368.785 91.8751 368.101C91.8073 369.385 91.755 370.672 91.7219 371.961C91.7124 372.329 91.7069 372.696 91.7 373.063C91.6571 373.135 91.6196 373.209 91.5947 373.286C91.4926 373.601 91.5621 373.904 91.682 374.235C91.6793 374.468 91.6779 374.702 91.6764 374.935C91.0095 374.307 90.214 373.363 89.2571 372.017C88.3937 370.803 87.5737 371.694 87.0471 372.728C86.2214 372.536 85.4338 372.655 84.8144 373.256C80.6607 377.286 76.0019 375.148 75.936 376.35C75.917 376.697 76.0958 376.972 76.3212 377.271C78.1348 379.678 81.6952 381.434 85.925 381.619C89.2447 381.764 90.3534 380.827 90.6311 380.575C90.7287 380.486 90.9473 380.295 91.184 380.026C91.3741 380.184 91.5592 380.327 91.7448 380.458C91.8178 382.765 91.9484 385.069 92.1421 387.37C91.9847 387.385 91.8341 387.411 91.7219 387.423C90.1139 387.594 89.5721 385.34 87.143 384.517C86.3363 384.243 84.7822 383.945 83.9632 384.517C83.8452 384.599 83.4428 384.909 82.8184 385.177C82.4494 385.336 82.1674 385.41 82.0553 385.441C81.0587 385.725 80.1356 386.502 79.5115 387.027C78.3383 388.014 77.7518 388.508 77.4764 389.405C77.3898 389.687 77.146 390.481 77.4764 391.255C77.6325 391.62 77.9949 392.164 79.3843 392.708C80.2101 393.032 82.6186 393.975 85.4895 392.972C86.1432 392.744 85.6442 392.826 88.1605 391.519C90.1402 390.491 91.298 390 91.4675 389.009C91.5271 388.66 91.467 388.236 91.7219 388.084C91.8635 388 92.0348 388.041 92.2057 388.104C92.3723 389.954 92.5803 391.8 92.8324 393.643H90.5671C87.5591 393.643 84.8606 395.382 83.5249 398.182L75.0514 415.939C74.5165 417.06 74.2336 418.314 74.2336 419.565V465.226C74.2336 469.728 77.7596 473.391 82.0936 473.391H101.872C106.206 473.391 109.732 469.728 109.732 465.226V423.181C109.732 422.156 109.549 421.153 109.189 420.198L101.113 398.825C100.133 396.233 98.0121 394.399 95.4762 393.831C96.2896 392.83 97.1043 391.829 97.9253 390.831C98.959 391.349 100.096 391.775 101.319 392.073C104.553 392.863 105.812 392.159 106.13 391.965C106.434 391.781 107.752 391.029 107.975 389.777C107.999 389.643 108.008 389.507 108.007 389.37C111.32 392.168 113.048 393.547 114.311 393.087C115.397 392.692 116.016 391.396 116.371 390.234C116.742 390.287 117.135 390.342 117.554 390.4C122.092 391.029 124.378 391.321 125.253 390.205C126.464 388.66 125.315 385.68 124.998 384.859C124.31 383.074 123.251 381.988 122.593 381.328C121.739 380.47 119.304 378.025 115.472 377.699C114.638 377.628 113.89 377.682 113.127 377.848C112.862 377.595 112.581 377.348 112.273 377.113C111.684 376.665 111.103 376.334 110.478 376.075C111.437 374.983 112.399 373.895 113.365 372.811C113.519 372.883 113.664 372.953 113.797 373.017C116.963 374.545 117.659 376.041 120.703 376.828C122.085 377.185 123.649 377.59 124.036 376.982C124.723 375.901 121.804 371.457 117.293 368.45C117.597 368.115 117.902 367.782 118.207 367.448C118.619 367.628 118.983 367.803 119.293 367.952C122.459 369.48 123.154 370.976 126.199 371.763C127.58 372.12 129.144 372.525 129.531 371.917C130.145 370.953 127.887 367.309 124.189 364.399C125.205 364.064 126.552 363.693 128.296 363.74C130.941 363.813 133.008 364.81 134.235 365.402C137.401 366.929 138.096 368.425 141.141 369.212C142.522 369.569 144.086 369.974 144.473 369.366C145.496 367.76 138.551 358.712 130.244 358.018C129.599 357.964 129.02 357.969 128.496 358.009C128.423 357.884 128.345 357.756 128.262 357.626C131.073 357.72 136.562 356.885 141.234 360.292C142.581 361.275 145.198 363.586 149.578 365.485C150.977 366.092 151.681 366.39 151.875 366.141C152.569 365.249 146.799 357.907 138.681 354.291C135.462 352.857 133.473 352.721 132.059 352.938C132.277 352.68 132.489 352.414 132.694 352.146C135.855 348.926 139.056 345.739 142.286 342.595C142.129 343.097 142.135 343.364 142.305 343.559ZM101.739 383.642C98.1687 382.442 93.8452 383.087 92.7179 384.453C92.5589 383.242 92.4208 382.029 92.307 380.815C93.9336 381.758 95.6309 382.011 98.8505 382.458C100.222 382.648 101.384 382.806 102.368 382.905C102.5 383.277 102.641 383.612 102.804 383.932C102.823 383.969 102.843 384.004 102.863 384.041L102.834 384.075C102.467 383.91 102.1 383.764 101.739 383.642ZM92.2529 367.376C92.3547 367.025 92.3568 366.651 92.2791 366.266C92.3902 364.87 92.5289 363.479 92.6929 362.091C92.6887 362.304 92.7535 362.516 92.8419 362.747C93.8345 365.336 96.5165 367.822 100.172 369.111C100.854 369.352 101.439 369.503 101.943 369.596C101.722 369.997 101.552 370.388 101.439 370.75C100.193 369.71 98.5885 368.954 96.7681 369.756C96.2728 369.975 95.9788 370.773 95.7234 371.729C94.0417 371.759 92.6365 372.123 91.9673 372.74C91.9709 372.483 91.9696 372.226 91.9762 371.968C92.0139 370.5 92.0836 369.037 92.1818 367.578C92.2086 367.513 92.2327 367.445 92.2529 367.376ZM91.972 374.927C92.0445 375.082 92.1239 375.235 92.2063 375.388C92.1315 375.331 92.0549 375.269 91.9763 375.202C91.9742 375.111 91.9737 375.019 91.972 374.927ZM94.8432 393.718C94.6474 393.692 94.4498 393.672 94.2504 393.661C93.7901 391.287 93.365 388.914 93.0092 386.538C93.9448 388.08 95.4718 389.492 97.4168 390.563C96.5537 391.612 95.6978 392.665 94.8432 393.718ZM109.913 375.864C108.695 375.458 107.266 375.264 105.289 375.025C104.788 374.302 104.271 373.769 103.889 373.385C103.683 373.178 103.365 372.766 102.954 372.283C104.02 371.928 105.61 371.295 107.858 371.356C109.901 371.412 111.597 372.019 112.829 372.565C111.853 373.661 110.882 374.761 109.913 375.864ZM116.813 368.139C115.617 367.388 114.319 366.745 112.953 366.293C113.086 366.292 113.216 366.287 113.354 366.291C115.048 366.337 116.503 366.763 117.653 367.218C117.373 367.525 117.093 367.831 116.813 368.139Z" fill="#CCCCCC"/>
</g>
</g>
<defs>
<linearGradient id="paint0_linear_73_2" x1="-495" y1="32.5" x2="406" y2="32.5" gradientUnits="userSpaceOnUse">
<stop offset="0.55" stop-color="#ED9B38"/>
<stop offset="1" stop-color="#F25A19" stop-opacity="0.85"/>
</linearGradient>
<linearGradient id="paint1_linear_73_2" x1="-43.9999" y1="985" x2="-43.9999" y2="697" gradientUnits="userSpaceOnUse">
<stop offset="0.55" stop-color="#ED9B38"/>
<stop offset="0.760049" stop-color="#F25A19" stop-opacity="0.85"/>
</linearGradient>
<clipPath id="clip0_73_2">
<rect width="393" height="852" fill="white"/>
</clipPath>
<clipPath id="clip1_73_2">
<rect width="273" height="226" fill="white" transform="translate(67 254)"/>
</clipPath>
</defs>
</svg>
